# AST/ASF file generated using VICON BodyLanguage
# -----------------------------------------------
:version 1.10
:name VICON
:units
  mass 1.0
  length 0.45
  angle deg
:documentation
   .ast/.asf automatically generated from VICON data using
   VICON BodyBuilder and BodyLanguage model FoxedUp or BRILLIANT.MOD
:root
   order TX TY TZ RX RY RZ
   axis XYZ
   position 0 0 0  
   orientation 0 0 0 
:bonedata
  begin
     id 1 
     name lhipjoint
     direction 0.621036 -0.695554 0.361275 
     length 2.46325 
     axis 0 0 0  XYZ
  end
  begin
     id 2 
     name lfemur
     direction 0.34202 -0.939693 0  
     length 6.54784  
     axis 0 0 20  XYZ
    dof rx ry rz
    limits (-160.0 20.0)
           (-70.0 70.0)
           (-60.0 70.0)
  end
  begin
     id 3 
     name ltibia
     direction 0.34202 -0.939693 0   
     length 7.84737   
     axis 0 0 20   XYZ
    dof rx
    limits (-10.0 170.0)
  end
  begin
     id 4 
     name lfoot
     direction 0.0790693 -0.217241 0.97291   
     length 2.59747   
     axis -90 7.62852e-016 20   XYZ
    dof rx rz
    limits (-45.0 90.0)
           (-70.0 20.0)
  end
  begin
     id 5 
     name ltoes
     direction 1.53572e-011 -4.21898e-011 1   
     length 1.29919   
     axis -90 7.62852e-016 20   XYZ
    dof rx
    limits (-90.0 20.0)
  end
  begin
     id 6 
     name rhipjoint
     direction -0.602353 -0.708375 0.367935   
     length 2.41867  
     axis 0 0 0  XYZ 
  end
  begin
     id 7 
     name rfemur
     direction -0.34202 -0.939693 0   
     length 6.92065   
     axis 0 0 -20   XYZ
    dof rx ry rz
    limits (-160.0 20.0)
           (-70.0 70.0)
           (-70.0 60.0)
  end
  begin
     id 8 
     name rtibia
     direction -0.34202 -0.939693 0   
     length 7.88883   
     axis 0 0 -20   XYZ
    dof rx
    limits (-10.0 170.0)
 end
 begin
     id 9 
     name rfoot
     direction -0.0768692 -0.211196 0.974416   
     length 2.43714  
     axis -90 -7.62852e-016 -20   XYZ
    dof rx rz
    limits (-45.0 90.0)
           (-20.0 70.0)
  end
  begin
     id 10 
     name rtoes
     direction -1.53575e-011 -4.21933e-011 1   
     length 1.22113   
     axis -90 -7.62852e-016 -20   XYZ
    dof rx
    limits (-90.0 20.0)
  end
  begin
     id 11 
     name lowerback
     direction 0.0197937 0.98943 -0.143655   
     length 2.16931   
     axis 0 0 0   XYZ
    dof rx ry rz
    limits (-20.0 45.0)
           (-30.0 30.0)
           (-30.0 30.0)
  end
  begin
     id 12 
     name upperback
     direction -0.00183968 0.999975 0.00684288   
     length 2.17221   
     axis 0 0 0   XYZ
    dof rx ry rz
    limits (-20.0 45.0)
           (-30.0 30.0)
           (-30.0 30.0)
  end
  begin
     id 13 
     name thorax
     direction -0.00950244 0.997208 0.0740685   
     length 2.22549   
     axis 0 0 0   XYZ
    dof rx ry rz
    limits (-20.0 45.0)
           (-30.0 30.0)
           (-30.0 30.0)
  end
  begin
     id 14 
     name lowerneck
     direction 0.0218238 0.996215 0.0841425   
     length 1.77269   
     axis 0 0 0   XYZ
    dof rx ry rz
    limits (-20.0 45.0)
           (-30.0 30.0)
           (-30.0 30.0)
  end
  begin
     id 15 
     name upperneck
     direction -0.00430652 0.994214 -0.107332   
     length 1.76534   
     axis 0 0 0   XYZ
    dof rx ry rz
    limits (-20.0 45.0)
           (-30.0 30.0)
           (-30.0 30.0)
  end
  begin
     id 16
     name head
     direction -0.00328946 0.998959 -0.0454998  
     length 1.82634  
     axis 0 0 0   XYZ
    dof rx ry rz
    limits (-20.0 45.0)
           (-30.0 30.0)
           (-30.0 30.0)
  end
  begin
     id 17 
     name lclavicle
     direction 0.970962 0.239191 0.00450212  
     length 3.84872  
     axis 0 0 0   XYZ
    dof ry rz
    limits (-20.0 10.0)
           (0.0 20.0)
  end
  begin
     id 18 
     name lhumerus
     direction 1 -4.48966e-011 5.74696e-028   
     length 5.22771   
     axis 180 -30 -90   XYZ
    dof rx ry rz
    limits (-60.0 90.0)
           (-90.0 90.0)
           (-90.0 90.0)
  end
  begin
     id 19
     name lradius
     direction 1 -4.4896e-011 4.25109e-027   
     length 3.45251   
     axis 180 -30 -90   XYZ
    dof rx
    limits (-10.0 170.0)
  end
  begin
     id 20
     name lwrist
     direction 1 -4.48971e-011 1.15382e-027   
     length 1.72626   
     axis -5.52449e-016 90 90   XYZ
    dof ry
    limits (-180.0 0.0)
 end
  begin
     id 21 
     name lhand
     direction 1 -4.49034e-011 2.30765e-027   
     length 0.552119   
     axis -1.47248e-015 90 90   XYZ
    dof rx rz
    limits (-90.0 90.0)
           (-45.0 45.0)
  end
  begin
     id 22 
     name lfingers
     direction 1 -4.48951e-011 4.61529e-027   
     length 0.445133   
     axis -2.94495e-015 90 90   XYZ
    dof rx
    limits (0.0 90.0)
  end
  begin
     id 23
     name lthumb
     direction 0.707107 -6.34991e-011 0.707107   
     length 0.639124   
     axis -90 45 2.85299e-015   XYZ
    dof rx rz
    limits (-45.0 45.0)
           (-45.0 45.0)
  end
  begin
     id 24 
     name rclavicle
     direction -0.97424 0.222511 -0.0366699   
     length 3.73439  
     axis 0 0 0   XYZ 
    dof ry rz
    limits (-10.0 20.0)
           (-20.0 0.0)
  end
  begin
     id 25 
     name rhumerus
     direction -1 -4.48956e-011 -4.97258e-028  
     length 5.2398   
     axis 180 30 90   XYZ
    dof rx ry rz
    limits (-90.0 60.0)
           (-90.0 90.0)
           (-90.0 90.0)
  end
  begin
     id 26 
     name rradius
     direction -1 -4.4897e-011 -1.72611e-027   
     length 3.48042   
     axis 180 30 90   XYZ
    dof rx
    limits (-10.0 170.0)
  end
  begin
     id 27 
     name rwrist
     direction -1 -4.48976e-011 1.15382e-027   
     length 1.74021   
     axis -5.52449e-016 -90 -90   XYZ
    dof ry
    limits (-180.0 0.0)
  end
  begin
     id 28
     name rhand
     direction -1 -4.48963e-011 2.30765e-027   
     length 0.618713   
     axis -1.47248e-015 -90 -90   XYZ
    dof rx rz
    limits (-90.0 90.0)
           (-45.0 45.0)
  end
  begin
     id 29
     name rfingers
     direction -1 -4.4888e-011 4.61529e-027   
     length 0.498823   
     axis -2.94495e-015 -90 -90   XYZ
    dof rx
    limits (0.0 90.0)
  end
  begin
     id 30
     name rthumb
     direction -0.707107 -6.34968e-011 0.707107   
     length 0.716213   
     axis -90 -45 -2.85299e-015   XYZ
    dof rx rz
    limits (-45.0 45.0)
           (-45.0 45.0)
  end
:hierarchy
  begin
    root lhipjoint rhipjoint lowerback
    lhipjoint lfemur
    lfemur ltibia
    ltibia lfoot
    lfoot ltoes
    rhipjoint rfemur
    rfemur rtibia
    rtibia rfoot
    rfoot rtoes
    lowerback upperback
    upperback thorax
    thorax lowerneck lclavicle rclavicle
    lowerneck upperneck
    upperneck head
    lclavicle lhumerus
    lhumerus lradius
    lradius lwrist
    lwrist lhand lthumb
    lhand lfingers
    rclavicle rhumerus
    rhumerus rradius
    rradius rwrist
    rwrist rhand rthumb
    rhand rfingers
  end

#!OML:ASF G:\JayActor3\Patient Classification 1\Patient 1\Session 5\male.ASF
:FULLY-SPECIFIED
:DEGREES
192
root 50.4653 17.1503 -5.5314 42.1584 -87.0214 -22.2861
lowerback 12.0466 -0.902035 3.67535
upperback 3.81262 -0.905764 -0.226961
thorax -2.81354 -0.505112 -2.17651
lowerneck 1.74971 -0.255329 1.76884
upperneck -12.9746 -0.319902 1.1278
head -4.59835 -0.395865 0.0905973
rclavicle 1.04362e-015 2.11706e-014
rhumerus -30.3961 -1.12077 -89.8594
rradius 36.6547
rwrist -3.36211
rhand -20.075 -9.39529
rfingers 7.12502
rthumb 6.26742 -39.2826
lclavicle 1.04362e-015 2.11706e-014
lhumerus -33.5909 0.430971 84.7791
lradius 38.3044
lwrist 23.9674
lhand -20.0274 15.1438
lfingers 7.12502
lthumb 6.3134 45.0297
rfemur -34.6012 2.22408 20.8855
rtibia 32.3336
rfoot -10.9032 -10.5211
rtoes 7.74288
lfemur -30.5685 10.3757 -19.8953
ltibia 22.9064
lfoot 2.67185 -3.71559
ltoes -20.8116
193
root 50.4816 17.1856 -5.53224 41.8213 -87.0907 -21.4862
lowerback 12.1702 -0.896733 3.6443
upperback 3.80446 -0.898164 -0.238675
thorax -2.88882 -0.502947 -2.17094
lowerneck 1.97878 -0.23585 1.76953
upperneck -13.3669 -0.290952 1.12872
head -4.78964 -0.390629 0.0922595
rclavicle 2.32081e-014 2.55438e-014
rhumerus -30.3652 -0.982377 -89.8809
rradius 36.8791
rwrist -3.35967
rhand -20.1433 -9.35446
rfingers 7.12502
rthumb 6.20151 -39.2437
lclavicle 2.32081e-014 2.55438e-014
lhumerus -33.6146 0.446449 84.767
lradius 38.4956
lwrist 24.0728
lhand -20.0312 15.1385
lfingers 7.12502
lthumb 6.30968 45.0245
rfemur -35.2436 1.98015 20.826
rtibia 32.3099
rfoot -10.1311 -10.5245
rtoes 7.71615
lfemur -31.2858 10.502 -20.0727
ltibia 22.9606
lfoot 3.59982 -3.84627
ltoes -21.3015
194
root 50.4971 17.2195 -5.53261 41.6789 -87.1582 -20.9026
lowerback 12.2913 -0.89311 3.62423
upperback 3.80628 -0.892209 -0.247913
thorax -2.95243 -0.501435 -2.16888
lowerneck 2.20607 -0.216584 1.76264
upperneck -13.7409 -0.261565 1.13834
head -4.97544 -0.384925 0.0981008
rclavicle 2.23633e-015 9.83984e-015
rhumerus -30.3245 -0.845237 -89.898
rradius 37.0991
rwrist -3.36196
rhand -20.2049 -9.31433
rfingers 7.12502
rthumb 6.14197 -39.2053
lclavicle 2.23633e-015 9.83984e-015
lhumerus -33.6342 0.455027 84.7615
lradius 38.6827
lwrist 24.1806
lhand -20.0379 15.1308
lfingers 7.12502
lthumb 6.30327 45.017
rfemur -35.8577 1.73029 20.7884
rtibia 32.277
rfoot -9.35966 -10.5396
rtoes 7.68171
lfemur -31.983 10.6026 -20.229
ltibia 23.0301
lfoot 4.49802 -3.93422
ltoes -21.7556
195
root 50.5112 17.2517 -5.53242 41.8858 -87.2245 -20.7018
lowerback 12.4124 -0.886326 3.6223
upperback 3.8189 -0.88064 -0.25571
thorax -3.00449 -0.497032 -2.17648
lowerneck 2.46108 -0.201873 1.76055
upperneck -14.523 -0.231159 1.16169
head -4.75896 -0.384648 0.0879474
rclavicle -2.22142e-014 -1.35174e-014
rhumerus -30.2868 -0.722883 -89.9094
rradius 37.318
rwrist -3.37254
rhand -20.2593 -9.2783
rfingers 7.12502
rthumb 6.08951 -39.1708
lclavicle -2.22142e-014 -1.35174e-014
lhumerus -33.6519 0.44018 84.7637
lradius 38.8611
lwrist 24.2926
lhand -20.053 15.1586
lfingers 7.12502
lthumb 6.28869 45.0453
rfemur -36.4268 1.49516 20.7716
rtibia 32.2361
rfoot -8.60639 -10.564
rtoes 7.66351
lfemur -32.6385 10.6721 -20.3508
ltibia 23.1097
lfoot 5.35394 -3.96766
ltoes -22.1803
196
root 50.5247 17.2817 -5.53234 42.1574 -87.2694 -20.591
lowerback 12.5278 -0.88519 3.6322
upperback 3.84312 -0.875697 -0.255917
thorax -3.04173 -0.495712 -2.182
lowerneck 2.71594 -0.186835 1.75866
upperneck -14.9136 -0.205512 1.17054
head -4.92216 -0.381247 0.0915274
rclavicle -9.93923e-015 -2.67365e-014
rhumerus -30.2403 -0.607933 -89.9126
rradius 37.534
rwrist -3.39472
rhand -20.3003 -9.24591
rfingers 7.12502
rthumb 6.04989 -39.1395
lclavicle -9.93923e-015 -2.67365e-014
lhumerus -33.6606 0.412138 84.7757
lradius 39.0318
lwrist 24.4069
lhand -20.0742 15.1962
lfingers 7.12502
lthumb 6.26815 45.0835
rfemur -36.9592 1.279 20.7695
rtibia 32.1907
rfoot -7.89382 -10.6174
rtoes 7.65152
lfemur -33.2667 10.7207 -20.4486
ltibia 23.1922
lfoot 6.17969 -3.98455
ltoes -22.5809
197
root 50.5372 17.3096 -5.53262 42.3093 -87.2865 -20.393
lowerback 12.6467 -0.891334 3.65446
upperback 3.87571 -0.878994 -0.250965
thorax -3.0726 -0.498424 -2.18789
lowerneck 2.98798 -0.175525 1.76708
upperneck -15.3044 -0.184574 1.17029
head -5.08888 -0.380164 0.0908246
rclavicle -9.49197e-015 -1.799e-014
rhumerus -30.1987 -0.506631 -89.9084
rradius 37.7481
rwrist -3.42961
rhand -20.3267 -9.20463
rfingers 7.12502
rthumb 6.02438 -39.099
lclavicle -9.49197e-015 -1.799e-014
lhumerus -33.6627 0.366742 84.7952
lradius 39.1883
lwrist 24.5126
lhand -20.0936 15.2451
lfingers 7.12502
lthumb 6.24946 45.1329
rfemur -37.4441 1.09219 20.77
rtibia 32.144
rfoot -7.25066 -10.7062
rtoes 7.66561
lfemur -33.8546 10.7563 -20.5282
ltibia 23.272
lfoot 6.97613 -4.00263
ltoes -22.9504
198
root 50.5488 17.3353 -5.53325 42.3384 -87.2789 -20.1051
lowerback 12.7705 -0.905348 3.6851
upperback 3.91812 -0.891767 -0.240172
thorax -3.09646 -0.505775 -2.19095
lowerneck 3.25845 -0.163407 1.77536
upperneck -15.6873 -0.162994 1.16604
head -5.25344 -0.378397 0.088802
rclavicle 6.21202e-015 1.74931e-014
rhumerus -30.1542 -0.415693 -89.8968
rradius 37.9571
rwrist -3.47341
rhand -20.341 -9.15567
rfingers 7.12502
rthumb 6.01058 -39.0504
lclavicle 6.21202e-015 1.74931e-014
lhumerus -33.6543 0.320792 84.8186
lradius 39.3285
lwrist 24.6006
lhand -20.1078 15.2881
lfingers 7.12502
lthumb 6.23574 45.1763
rfemur -37.881 0.928711 20.7726
rtibia 32.0983
rfoot -6.68179 -10.8202
rtoes 7.70749
lfemur -34.3995 10.7833 -20.5911
ltibia 23.3466
lfoot 7.74226 -4.02048
ltoes -23.2574
199
root 50.5595 17.3587 -5.53408 42.2331 -87.2524 -19.7092
lowerback 12.8964 -0.925023 3.72287
upperback 3.96598 -0.911174 -0.226401
thorax -3.11611 -0.51637 -2.19386
lowerneck 3.51653 -0.151855 1.79017
upperneck -16.0478 -0.143025 1.1529
head -5.40949 -0.376758 0.0828713
rclavicle 1.30204e-014 2.90226e-014
rhumerus -30.1168 -0.340235 -89.8778
rradius 38.1642
rwrist -3.52335
rhand -20.3506 -9.12147
rfingers 7.12502
rthumb 6.00129 -39.0165
lclavicle 1.30204e-014 2.90226e-014
lhumerus -33.6401 0.272539 84.8445
lradius 39.4533
lwrist 24.6652
lhand -20.1102 15.3088
lfingers 7.12502
lthumb 6.23339 45.197
rfemur -38.2777 0.773139 20.7771
rtibia 32.0533
rfoot -6.18363 -10.9428
rtoes 7.7877
lfemur -34.9101 10.8068 -20.6451
ltibia 23.4187
lfoot 8.47425 -4.04674
ltoes -23.5323
200
root 50.5691 17.3797 -5.53509 42.0836 -87.2135 -19.2964
lowerback 13.0246 -0.947027 3.76706
upperback 4.01559 -0.932756 -0.212047
thorax -3.13534 -0.528055 -2.19937
lowerneck 3.76568 -0.141961 1.81018
upperneck -16.3762 -0.124748 1.13838
head -5.55449 -0.375385 0.0755547
rclavicle -7.40473e-015 -4.13472e-014
rhumerus -30.0926 -0.291159 -89.8528
rradius 38.3659
rwrist -3.57053
rhand -20.3612 -9.10023
rfingers 7.12502
rthumb 5.99112 -38.9955
lclavicle -7.40473e-015 -4.13472e-014
lhumerus -33.629 0.222049 84.8687
lradius 39.5642
lwrist 24.7034
lhand -20.1005 15.3031
lfingers 7.12502
lthumb 6.24276 45.1911
rfemur -38.6309 0.628733 20.7828
rtibia 32.0071
rfoot -5.75427 -11.0685
rtoes 7.84963
lfemur -35.3827 10.8312 -20.6881
ltibia 23.4921
lfoot 9.16352 -4.07929
ltoes -23.7534
201
root 50.5782 17.3982 -5.53573 42.0132 -87.1785 -18.9752
lowerback 13.1445 -0.968853 3.8112
upperback 4.06553 -0.954305 -0.19675
thorax -3.14964 -0.539621 -2.2039
lowerneck 3.9795 -0.132991 1.82707
upperneck -16.656 -0.108646 1.12398
head -5.67869 -0.373858 0.0686442
rclavicle -1.04362e-014 8.39865e-015
rhumerus -30.0734 -0.252067 -89.8208
rradius 38.5615
rwrist -3.62022
rhand -20.3763 -9.1054
rfingers 7.12502
rthumb 5.97655 -39.0011
lclavicle -1.04362e-014 8.39865e-015
lhumerus -33.6206 0.184685 84.8922
lradius 39.6678
lwrist 24.7218
lhand -20.0937 15.3057
lfingers 7.12502
lthumb 6.24933 45.1935
rfemur -38.9619 0.481129 20.7902
rtibia 31.959
rfoot -5.36207 -11.1709
rtoes 7.7976
lfemur -35.8332 10.8483 -20.7234
ltibia 23.569
lfoot 9.79787 -4.10127
ltoes -23.9389
202
root 50.5863 17.4141 -5.53598 41.9985 -87.151 -18.7286
lowerback 13.2584 -0.990714 3.85069
upperback 4.11789 -0.97678 -0.180618
thorax -3.15804 -0.551539 -2.20482
lowerneck 4.16061 -0.122501 1.83397
upperneck -16.8901 -0.0912252 1.1146
head -5.78319 -0.37042 0.0646267
rclavicle -8.19987e-015 -4.22417e-015
rhumerus -30.0562 -0.219673 -89.7829
rradius 38.745
rwrist -3.67019
rhand -20.3979 -9.1364
rfingers 7.12502
rthumb 5.95571 -39.0327
lclavicle -8.19987e-015 -4.22417e-015
lhumerus -33.6144 0.171347 84.9119
lradius 39.761
lwrist 24.7232
lhand -20.0947 15.3319
lfingers 7.12502
lthumb 6.24844 45.2197
rfemur -39.2612 0.336404 20.7953
rtibia 31.9088
rfoot -5.00814 -11.2451
rtoes 7.62811
lfemur -36.2493 10.8573 -20.7499
ltibia 23.6481
lfoot 10.3674 -4.11808
ltoes -24.0978
